<svg width="320" height="98" viewBox="0 0 320 98" fill="none" xmlns="http://www.w3.org/2000/svg">
<path d="M168.172 21.1738C172.176 21.1738 176.261 21.5482 180.428 22.2969C184.595 23.013 188.648 24.1198 192.586 25.6172C196.525 27.1146 200.236 29.0026 203.719 31.2812C207.202 33.5273 210.246 36.1641 212.85 39.1914C215.454 42.2188 217.505 45.6367 219.002 49.4453C220.532 53.2539 221.297 57.4694 221.297 62.0918C221.297 66.7142 220.483 70.9948 218.856 74.9336C217.228 78.8724 214.95 82.2741 212.02 85.1387C209.09 88.0033 205.591 90.2493 201.522 91.877C197.453 93.5046 192.977 94.3184 188.094 94.3184C185.783 94.3184 183.39 94.1393 180.916 93.7812C178.442 93.4557 175.968 92.9349 173.495 92.2188C171.021 91.5026 168.579 90.6237 166.17 89.582C163.794 88.5078 161.515 87.2383 159.334 85.7734C156.763 88.3125 153.784 90.2982 150.399 91.7305C147.046 93.1302 143.498 93.8301 139.754 93.8301C137.736 93.8301 135.848 93.6022 134.09 93.1465C132.332 92.6908 130.802 92.0397 129.5 91.1934C128.231 90.347 127.222 89.3216 126.473 88.1172C125.757 86.9128 125.399 85.5781 125.399 84.1133C125.399 82.8438 125.708 81.6556 126.327 80.5488C126.978 79.4421 127.873 78.4655 129.012 77.6191C130.184 76.7728 131.567 76.1055 133.162 75.6172C134.79 75.1289 136.564 74.8848 138.485 74.8848C144.149 74.8848 150.855 76.9681 158.602 81.1348C160.034 79.3444 161.206 77.3262 162.118 75.0801C163.127 72.5736 163.908 70.002 164.461 67.3652C165.047 64.696 165.552 62.043 165.975 59.4062C166.431 56.7695 166.886 54.1979 167.342 51.6914C167.83 49.1849 168.482 46.8249 169.295 44.6113C170.142 42.3978 171.232 40.3796 172.567 38.5566C173.934 36.7012 175.708 35.1224 177.889 33.8203C178.215 33.6576 178.508 33.5762 178.768 33.5762C179.224 33.5762 179.647 33.7389 180.037 34.0645C180.461 34.39 180.672 34.8457 180.672 35.4316C180.672 36.1152 180.363 36.6361 179.745 36.9941C178.019 38.0033 176.603 39.2728 175.496 40.8027C174.422 42.3001 173.527 43.9928 172.811 45.8809C172.095 47.7689 171.525 49.8034 171.102 51.9844C170.679 54.1654 170.272 56.444 169.881 58.8203C169.556 60.7734 169.198 62.8242 168.807 64.9727C168.416 67.0885 167.928 69.2044 167.342 71.3203C166.756 73.4036 166.008 75.4544 165.096 77.4727C164.217 79.4583 163.127 81.2975 161.825 82.9902C161.89 83.0228 161.922 83.0553 161.922 83.0879C161.955 83.0879 162.004 83.1042 162.069 83.1367C166.203 85.6107 170.5 87.4824 174.959 88.752C179.419 90.0215 183.781 90.6562 188.045 90.6562C192.668 90.6562 196.802 89.8913 200.448 88.3613C204.126 86.8314 207.235 84.7806 209.774 82.209C212.313 79.6048 214.25 76.5775 215.584 73.127C216.919 69.6764 217.586 66.0306 217.586 62.1895C217.586 58.2832 216.935 54.6536 215.633 51.3008C214.331 47.9154 212.541 44.8392 210.262 42.0723C208.016 39.3053 205.33 36.8477 202.205 34.6992C199.113 32.5508 195.76 30.7604 192.147 29.3281C188.566 27.8633 184.79 26.7565 180.819 26.0078C176.88 25.2266 172.925 24.8359 168.954 24.8359C163.615 24.8359 158.732 25.2917 154.305 26.2031C149.911 27.082 146.118 28.3841 142.928 30.1094C139.771 31.8346 137.313 33.9505 135.555 36.457C133.797 38.9635 132.918 41.8118 132.918 45.002C132.918 46.8249 133.179 48.4362 133.7 49.8359C134.253 51.2357 134.937 52.4564 135.75 53.498C136.597 54.5072 137.508 55.3698 138.485 56.0859C139.461 56.8021 140.373 57.388 141.219 57.8438C142.065 58.2669 142.782 58.5762 143.368 58.7715C143.986 58.9668 144.344 59.0807 144.442 59.1133C144.865 59.2109 145.19 59.4388 145.418 59.7969C145.679 60.1224 145.809 60.4967 145.809 60.9199C145.809 61.4733 145.614 61.8965 145.223 62.1895C144.832 62.4824 144.409 62.6289 143.954 62.6289C143.302 62.6289 142.489 62.4824 141.512 62.1895C140.536 61.8639 139.494 61.3919 138.387 60.7734C137.313 60.1224 136.222 59.3249 135.116 58.3809C134.041 57.4043 133.065 56.265 132.186 54.9629C131.307 53.6608 130.591 52.1797 130.037 50.5195C129.517 48.8594 129.256 47.0202 129.256 45.002C129.256 41.3236 130.184 38.0195 132.039 35.0898C133.927 32.1276 136.58 29.6211 139.998 27.5703C143.416 25.5195 147.502 23.9408 152.254 22.834C157.039 21.7272 162.345 21.1738 168.172 21.1738ZM155.965 83.918C152.58 82.1276 149.439 80.7767 146.541 79.8652C143.644 78.9538 140.991 78.498 138.582 78.498C137.215 78.498 135.946 78.6608 134.774 78.9863C133.635 79.2793 132.642 79.6862 131.795 80.207C130.949 80.7279 130.282 81.3301 129.793 82.0137C129.305 82.6973 129.061 83.4134 129.061 84.1621C129.061 84.8783 129.273 85.5944 129.696 86.3105C130.151 87.0267 130.819 87.6615 131.698 88.2148C132.609 88.7682 133.732 89.224 135.067 89.582C136.401 89.9401 137.964 90.1191 139.754 90.1191C142.814 90.1191 145.728 89.582 148.495 88.5078C151.294 87.401 153.784 85.8711 155.965 83.918ZM313.289 41.7305C313.192 42.1862 312.98 42.5443 312.655 42.8047C312.329 43.0651 311.971 43.1953 311.58 43.1953C310.995 43.1953 310.523 43.0163 310.164 42.6582C309.806 42.2676 309.627 41.8281 309.627 41.3398C309.627 40.8516 309.676 40.3796 309.774 39.9238C309.871 39.4355 309.92 38.9635 309.92 38.5078C309.92 36.1315 309.188 33.9993 307.723 32.1113C306.258 30.2233 304.175 28.6445 301.473 27.375C298.804 26.0729 295.549 25.0801 291.707 24.3965C287.866 23.7129 283.586 23.3711 278.866 23.3711C275.252 23.3711 271.607 23.6152 267.928 24.1035C264.282 24.5592 260.767 25.2428 257.381 26.1543C254.028 27.0332 250.887 28.1562 247.957 29.5234C245.028 30.8581 242.472 32.4206 240.291 34.2109C238.143 35.9688 236.45 37.9382 235.213 40.1191C233.976 42.2676 233.358 44.6276 233.358 47.1992C233.358 49.1849 233.781 50.9427 234.627 52.4727C235.506 53.9701 236.694 55.2884 238.192 56.4277C239.689 57.5345 241.447 58.4948 243.465 59.3086C245.516 60.0898 247.73 60.7572 250.106 61.3105C252.482 61.8314 254.956 62.2708 257.528 62.6289C260.099 62.9544 262.687 63.2311 265.291 63.459L272.811 64.0938C276.554 64.4193 279.907 64.7611 282.87 65.1191C285.832 65.4772 288.436 65.9329 290.682 66.4863C294.426 67.4303 297.192 68.7812 298.983 70.5391C300.773 72.2969 301.668 74.6406 301.668 77.5703C301.668 80.4023 300.887 82.8926 299.325 85.041C297.762 87.1895 295.63 88.9961 292.928 90.4609C290.226 91.9258 287.069 93.0326 283.455 93.7812C279.842 94.5299 275.968 94.9043 271.834 94.9043C267.342 94.9043 263.387 94.5951 259.969 93.9766C256.584 93.3906 253.735 92.7396 251.424 92.0234C249.146 91.2747 247.404 90.5911 246.2 89.9727C244.995 89.3542 244.344 89.0124 244.246 88.9473C243.661 88.6217 243.368 88.1009 243.368 87.3848C243.368 86.8314 243.563 86.3919 243.954 86.0664C244.344 85.7083 244.767 85.5293 245.223 85.5293C245.581 85.5293 245.907 85.627 246.2 85.8223C246.232 85.8223 246.786 86.1152 247.86 86.7012C248.967 87.2546 250.594 87.873 252.743 88.5566C254.924 89.2402 257.609 89.8587 260.799 90.4121C263.989 90.9655 267.7 91.2422 271.932 91.2422C276.131 91.2422 279.842 90.9004 283.065 90.2168C286.287 89.5332 288.989 88.5892 291.17 87.3848C293.384 86.1478 295.044 84.7155 296.151 83.0879C297.29 81.4277 297.86 79.6374 297.86 77.7168C297.86 76.5775 297.648 75.6009 297.225 74.7871C296.834 73.9408 296.281 73.2246 295.565 72.6387C294.849 72.0202 293.986 71.4993 292.977 71.0762C292 70.653 290.926 70.2949 289.754 70.002C288.517 69.6764 287.183 69.3997 285.75 69.1719C284.351 68.944 282.902 68.7487 281.405 68.5859C279.907 68.4232 278.394 68.2767 276.864 68.1465C275.366 68.0163 273.885 67.8861 272.42 67.7559L264.901 67.1211C258.976 66.6328 253.801 65.8841 249.373 64.875C244.979 63.8333 241.317 62.515 238.387 60.9199C235.457 59.2923 233.26 57.3555 231.795 55.1094C230.33 52.8633 229.598 50.2428 229.598 47.248C229.598 44.1882 230.282 41.3887 231.649 38.8496C233.049 36.278 234.937 33.9668 237.313 31.916C239.722 29.8652 242.521 28.0911 245.711 26.5938C248.934 25.0638 252.368 23.7943 256.014 22.7852C259.66 21.776 263.436 21.0273 267.342 20.5391C271.248 20.0182 275.09 19.7578 278.866 19.7578C283.586 19.7578 287.687 20.0508 291.17 20.6367C294.686 21.1901 297.681 21.9225 300.155 22.834C302.661 23.7129 304.712 24.722 306.307 25.8613C307.902 27.0007 309.188 28.1237 310.164 29.2305C312.476 31.9323 313.631 35.0085 313.631 38.459C313.631 39.5983 313.517 40.6888 313.289 41.7305Z" fill="#A3A3A3"/>
<path d="M21.9375 26.3618C23.8594 26.3618 25.8203 26.5415 27.8203 26.9009C29.8203 27.2446 31.7656 27.7759 33.6562 28.4946C35.5469 29.2134 37.3281 30.1196 39 31.2134C40.6719 32.2915 42.1328 33.5571 43.3828 35.0103C44.6328 36.4634 45.6172 38.104 46.3359 39.9321C47.0703 41.7603 47.4375 43.7837 47.4375 46.0024C47.4375 48.2212 47.0469 50.2759 46.2656 52.1665C45.4844 54.0571 44.3906 55.6899 42.9844 57.0649C41.5781 58.4399 39.8984 59.5181 37.9453 60.2993C35.9922 61.0806 33.8438 61.4712 31.5 61.4712C30.3906 61.4712 29.2422 61.3853 28.0547 61.2134C26.8672 61.0571 25.6797 60.8071 24.4922 60.4634C23.3047 60.1196 22.1328 59.6978 20.9766 59.1978C19.8359 58.6821 18.7422 58.0728 17.6953 57.3696C16.4609 58.5884 15.0312 59.5415 13.4062 60.229C11.7969 60.9009 10.0938 61.2368 8.29688 61.2368C7.32812 61.2368 6.42188 61.1274 5.57812 60.9087C4.73438 60.6899 4 60.3774 3.375 59.9712C2.76562 59.5649 2.28125 59.0728 1.92188 58.4946C1.57812 57.9165 1.40625 57.2759 1.40625 56.5728C1.40625 55.9634 1.55469 55.3931 1.85156 54.8618C2.16406 54.3306 2.59375 53.8618 3.14062 53.4556C3.70312 53.0493 4.36719 52.729 5.13281 52.4946C5.91406 52.2603 6.76562 52.1431 7.6875 52.1431C10.4062 52.1431 13.625 53.1431 17.3438 55.1431C18.0312 54.2837 18.5938 53.3149 19.0312 52.2368C19.5156 51.0337 19.8906 49.7993 20.1562 48.5337C20.4375 47.2524 20.6797 45.979 20.8828 44.7134C21.1016 43.4478 21.3203 42.2134 21.5391 41.0103C21.7734 39.8071 22.0859 38.6743 22.4766 37.6118C22.8828 36.5493 23.4062 35.5806 24.0469 34.7056C24.7031 33.8149 25.5547 33.0571 26.6016 32.4321C26.7578 32.354 26.8984 32.3149 27.0234 32.3149C27.2422 32.3149 27.4453 32.3931 27.6328 32.5493C27.8359 32.7056 27.9375 32.9243 27.9375 33.2056C27.9375 33.5337 27.7891 33.7837 27.4922 33.9556C26.6641 34.4399 25.9844 35.0493 25.4531 35.7837C24.9375 36.5024 24.5078 37.3149 24.1641 38.2212C23.8203 39.1274 23.5469 40.104 23.3438 41.1509C23.1406 42.1978 22.9453 43.2915 22.7578 44.4321C22.6016 45.3696 22.4297 46.354 22.2422 47.3853C22.0547 48.4009 21.8203 49.4165 21.5391 50.4321C21.2578 51.4321 20.8984 52.4165 20.4609 53.3853C20.0391 54.3384 19.5156 55.2212 18.8906 56.0337C18.9219 56.0493 18.9375 56.0649 18.9375 56.0806C18.9531 56.0806 18.9766 56.0884 19.0078 56.104C20.9922 57.2915 23.0547 58.1899 25.1953 58.7993C27.3359 59.4087 29.4297 59.7134 31.4766 59.7134C33.6953 59.7134 35.6797 59.3462 37.4297 58.6118C39.1953 57.8774 40.6875 56.8931 41.9062 55.6587C43.125 54.4087 44.0547 52.9556 44.6953 51.2993C45.3359 49.6431 45.6562 47.8931 45.6562 46.0493C45.6562 44.1743 45.3438 42.4321 44.7188 40.8228C44.0938 39.1978 43.2344 37.7212 42.1406 36.3931C41.0625 35.0649 39.7734 33.8853 38.2734 32.854C36.7891 31.8228 35.1797 30.9634 33.4453 30.2759C31.7266 29.5728 29.9141 29.0415 28.0078 28.6821C26.1172 28.3071 24.2188 28.1196 22.3125 28.1196C19.75 28.1196 17.4062 28.3384 15.2812 28.7759C13.1719 29.1978 11.3516 29.8228 9.82031 30.6509C8.30469 31.479 7.125 32.4946 6.28125 33.6978C5.4375 34.9009 5.01562 36.2681 5.01562 37.7993C5.01562 38.6743 5.14062 39.4478 5.39062 40.1196C5.65625 40.7915 5.98438 41.3774 6.375 41.8774C6.78125 42.3618 7.21875 42.7759 7.6875 43.1196C8.15625 43.4634 8.59375 43.7446 9 43.9634C9.40625 44.1665 9.75 44.3149 10.0312 44.4087C10.3281 44.5024 10.5 44.5571 10.5469 44.5728C10.75 44.6196 10.9062 44.729 11.0156 44.9009C11.1406 45.0571 11.2031 45.2368 11.2031 45.4399C11.2031 45.7056 11.1094 45.9087 10.9219 46.0493C10.7344 46.1899 10.5312 46.2603 10.3125 46.2603C10 46.2603 9.60938 46.1899 9.14062 46.0493C8.67188 45.8931 8.17188 45.6665 7.64062 45.3696C7.125 45.0571 6.60156 44.6743 6.07031 44.2212C5.55469 43.7524 5.08594 43.2056 4.66406 42.5806C4.24219 41.9556 3.89844 41.2446 3.63281 40.4478C3.38281 39.6509 3.25781 38.7681 3.25781 37.7993C3.25781 36.0337 3.70312 34.4478 4.59375 33.0415C5.5 31.6196 6.77344 30.4165 8.41406 29.4321C10.0547 28.4478 12.0156 27.6899 14.2969 27.1587C16.5938 26.6274 19.1406 26.3618 21.9375 26.3618ZM16.0781 56.479C14.4531 55.6196 12.9453 54.9712 11.5547 54.5337C10.1641 54.0962 8.89062 53.8774 7.73438 53.8774C7.07812 53.8774 6.46875 53.9556 5.90625 54.1118C5.35938 54.2524 4.88281 54.4478 4.47656 54.6978C4.07031 54.9478 3.75 55.2368 3.51562 55.5649C3.28125 55.8931 3.16406 56.2368 3.16406 56.5962C3.16406 56.9399 3.26562 57.2837 3.46875 57.6274C3.6875 57.9712 4.00781 58.2759 4.42969 58.5415C4.86719 58.8071 5.40625 59.0259 6.04688 59.1978C6.6875 59.3696 7.4375 59.4556 8.29688 59.4556C9.76562 59.4556 11.1641 59.1978 12.4922 58.6821C13.8359 58.1509 15.0312 57.4165 16.0781 56.479ZM68.0859 54.2993C68.0234 54.4243 67.8906 54.6899 67.6875 55.0962C67.5 55.4868 67.25 55.9399 66.9375 56.4556C66.6406 56.9712 66.2891 57.5103 65.8828 58.0728C65.4766 58.6353 65.0234 59.1509 64.5234 59.6196C64.0234 60.0884 63.4844 60.479 62.9062 60.7915C62.3281 61.0884 61.7188 61.2368 61.0781 61.2368C60.1719 61.2368 59.4062 60.9478 58.7812 60.3696C58.1719 59.7915 57.7266 59.0649 57.4453 58.1899C56.9141 59.0806 56.2812 59.7915 55.5469 60.3228C54.8125 60.8384 54.0781 61.0962 53.3438 61.0962C52.7656 61.0962 52.2422 60.9946 51.7734 60.7915C51.3047 60.5728 50.9062 60.2759 50.5781 59.9009C50.25 59.5103 49.9922 59.0571 49.8047 58.5415C49.6328 58.0259 49.5469 57.4634 49.5469 56.854C49.5469 55.6353 49.75 54.5649 50.1562 53.6431C50.5781 52.7056 51.1094 51.9243 51.75 51.2993C52.3906 50.6743 53.0938 50.2056 53.8594 49.8931C54.6406 49.5806 55.3906 49.4243 56.1094 49.4243C56.5938 49.4243 57.0391 49.4946 57.4453 49.6353C57.8516 49.7603 58.1953 49.9009 58.4766 50.0571C58.7734 50.2134 59 50.3618 59.1562 50.5024C59.3125 50.6274 59.3984 50.6978 59.4141 50.7134C59.5859 50.9165 59.6719 51.1274 59.6719 51.3462C59.6719 51.5806 59.5859 51.7915 59.4141 51.979C59.2422 52.1509 59.0391 52.2368 58.8047 52.2368C58.5547 52.2368 58.3438 52.1509 58.1719 51.979C58.1406 51.9478 58.0703 51.8931 57.9609 51.8149C57.8516 51.7212 57.7031 51.6274 57.5156 51.5337C57.3281 51.4399 57.1016 51.3618 56.8359 51.2993C56.5859 51.2212 56.2969 51.1821 55.9688 51.1821C55.4844 51.1821 54.9688 51.2915 54.4219 51.5103C53.875 51.729 53.375 52.0728 52.9219 52.5415C52.4688 52.9946 52.0859 53.5728 51.7734 54.2759C51.4766 54.9634 51.3281 55.7837 51.3281 56.7368C51.3281 57.0337 51.3594 57.3384 51.4219 57.6509C51.4844 57.9478 51.5938 58.2212 51.75 58.4712C51.9062 58.7212 52.1172 58.9243 52.3828 59.0806C52.6484 59.2368 52.9766 59.3149 53.3672 59.3149C53.6484 59.3149 53.9688 59.2212 54.3281 59.0337C54.7031 58.8462 55.0547 58.5571 55.3828 58.1665C55.7266 57.7759 56.0312 57.2837 56.2969 56.6899C56.5781 56.0962 56.7734 55.3931 56.8828 54.5806C56.9141 54.3618 57.0156 54.1821 57.1875 54.0415C57.3594 53.8853 57.5625 53.8071 57.7969 53.8071C58.0156 53.8071 58.2031 53.8931 58.3594 54.0649C58.5312 54.2368 58.625 54.4321 58.6406 54.6509C58.6562 54.9478 58.6875 55.3696 58.7344 55.9165C58.7812 56.4478 58.8828 56.979 59.0391 57.5103C59.2109 58.0415 59.4609 58.5024 59.7891 58.8931C60.1172 59.2837 60.5703 59.479 61.1484 59.479C61.5234 59.479 61.8906 59.3774 62.25 59.1743C62.625 58.9712 62.9844 58.7056 63.3281 58.3774C63.6875 58.0337 64.0234 57.6509 64.3359 57.229C64.6641 56.7915 64.9609 56.354 65.2266 55.9165C65.4922 55.479 65.7266 55.0571 65.9297 54.6509C66.1328 54.2446 66.3047 53.8931 66.4453 53.5962C66.5234 53.4243 66.6328 53.2915 66.7734 53.1978C66.9297 53.104 67.0938 53.0571 67.2656 53.0571C67.5312 53.0571 67.7422 53.1587 67.8984 53.3618C68.0703 53.5493 68.1562 53.7524 68.1562 53.9712C68.1562 54.0806 68.1328 54.1899 68.0859 54.2993ZM71.6719 58.729C71.9219 58.2134 72.2109 57.6509 72.5391 57.0415C72.8672 56.4165 73.2188 55.7915 73.5938 55.1665C73.9688 54.5259 74.3594 53.8931 74.7656 53.2681C75.1875 52.6431 75.625 52.0493 76.0781 51.4868C76.5312 50.9399 76.9844 50.5493 77.4375 50.3149C77.9062 50.0649 78.3438 49.9399 78.75 49.9399C79.5625 49.9399 80.1641 50.2368 80.5547 50.8306C80.9453 51.4243 81.1406 52.1587 81.1406 53.0337C81.1406 53.2368 81.125 53.4868 81.0938 53.7837C81.0781 54.0649 81.0547 54.3696 81.0234 54.6978C81.0078 55.0259 80.9844 55.3618 80.9531 55.7056C80.9375 56.0337 80.9297 56.3462 80.9297 56.6431C80.9297 57.0181 80.9453 57.3774 80.9766 57.7212C81.0234 58.0649 81.1016 58.3696 81.2109 58.6353C81.3203 58.8853 81.4766 59.0884 81.6797 59.2446C81.8828 59.3853 82.1484 59.4556 82.4766 59.4556C83.0703 59.4556 83.6484 59.229 84.2109 58.7759C84.7734 58.3071 85.2891 57.7603 85.7578 57.1353C86.2422 56.4946 86.6562 55.8462 87 55.1899C87.3594 54.5337 87.625 54.0024 87.7969 53.5962C87.875 53.4243 87.9844 53.2915 88.125 53.1978C88.2812 53.104 88.4453 53.0571 88.6172 53.0571C88.8828 53.0571 89.0938 53.1587 89.25 53.3618C89.4219 53.5493 89.5078 53.7524 89.5078 53.9712C89.5078 54.0806 89.4844 54.1899 89.4375 54.2993C89.375 54.4243 89.25 54.6821 89.0625 55.0728C88.875 55.4634 88.625 55.9165 88.3125 56.4321C88.0156 56.9321 87.6641 57.4712 87.2578 58.0493C86.8516 58.6118 86.3984 59.1274 85.8984 59.5962C85.4141 60.0649 84.8828 60.4556 84.3047 60.7681C83.7422 61.0806 83.1484 61.2368 82.5234 61.2368C81.8203 61.2368 81.25 61.104 80.8125 60.8384C80.375 60.5571 80.0312 60.1978 79.7812 59.7603C79.5312 59.3071 79.3594 58.8149 79.2656 58.2837C79.1875 57.7368 79.1484 57.1899 79.1484 56.6431C79.1484 56.4087 79.1562 56.1431 79.1719 55.8462C79.2031 55.5493 79.2344 55.2368 79.2656 54.9087C79.3125 54.5806 79.3438 54.2524 79.3594 53.9243C79.3906 53.5962 79.4062 53.2837 79.4062 52.9868C79.4062 52.4868 79.3281 52.1509 79.1719 51.979C79.0156 51.7915 78.875 51.6978 78.75 51.6978C78.5 51.6978 78.2109 51.8462 77.8828 52.1431C77.5703 52.4243 77.2344 52.7993 76.875 53.2681C76.5312 53.7368 76.1719 54.2681 75.7969 54.8618C75.4375 55.4399 75.0938 56.0181 74.7656 56.5962C74.4531 57.1743 74.1562 57.729 73.875 58.2603C73.6094 58.7759 73.3984 59.2056 73.2422 59.5493C72.9297 60.2056 72.6172 60.6431 72.3047 60.8618C71.9922 61.0962 71.6719 61.2134 71.3438 61.2134C70.8906 61.2134 70.5234 61.0806 70.2422 60.8149C69.9766 60.5337 69.8438 60.1431 69.8438 59.6431C69.8438 59.5337 69.8594 59.3228 69.8906 59.0103C69.9219 58.6821 69.9609 58.2993 70.0078 57.8618C70.0547 57.4087 70.1016 56.9243 70.1484 56.4087C70.1953 55.8931 70.2422 55.3853 70.2891 54.8853C70.3359 54.3696 70.375 53.8931 70.4062 53.4556C70.4375 53.0181 70.4531 52.6509 70.4531 52.354C70.4531 51.9634 70.4375 51.5884 70.4062 51.229C70.375 50.8696 70.3125 50.6509 70.2188 50.5728C70.0781 50.6196 69.8281 50.9165 69.4688 51.4634C69.1094 51.9946 68.6484 52.9399 68.0859 54.2993C68.0078 54.4712 67.8906 54.604 67.7344 54.6978C67.5781 54.7915 67.4141 54.8384 67.2422 54.8384C66.9766 54.8384 66.7656 54.7524 66.6094 54.5806C66.4531 54.3931 66.375 54.1821 66.375 53.9478C66.375 53.8384 66.3984 53.7212 66.4453 53.5962C67.1484 51.9243 67.8047 50.6978 68.4141 49.9165C69.0391 49.1196 69.6562 48.7212 70.2656 48.7212C70.625 48.7212 70.9297 48.8149 71.1797 49.0024C71.4297 49.1743 71.625 49.4087 71.7656 49.7056C71.9219 50.0024 72.0312 50.3306 72.0938 50.6899C72.1719 51.0493 72.2109 51.4165 72.2109 51.7915C72.2109 52.0728 72.1875 52.5103 72.1406 53.104C72.1094 53.6978 72.0625 54.3384 72 55.0259C71.9375 55.6978 71.875 56.3696 71.8125 57.0415C71.7656 57.7134 71.7188 58.2759 71.6719 58.729ZM91.6641 42.4399C91.6641 43.0337 91.4531 43.5415 91.0312 43.9634C90.625 44.3696 90.125 44.5728 89.5312 44.5728C88.9375 44.5728 88.4297 44.3696 88.0078 43.9634C87.6016 43.5415 87.3984 43.0337 87.3984 42.4399C87.3984 42.1431 87.4531 41.8696 87.5625 41.6196C87.6719 41.354 87.8203 41.1274 88.0078 40.9399C88.2109 40.7368 88.4375 40.5806 88.6875 40.4712C88.9531 40.3618 89.2344 40.3071 89.5312 40.3071C89.8281 40.3071 90.1016 40.3618 90.3516 40.4712C90.6172 40.5806 90.8438 40.7368 91.0312 40.9399C91.2344 41.1274 91.3906 41.354 91.5 41.6196C91.6094 41.8696 91.6641 42.1431 91.6641 42.4399ZM87.8672 56.1743C87.8672 53.9243 88.0078 51.6821 88.2891 49.4478C88.3203 49.229 88.4141 49.0415 88.5703 48.8853C88.7422 48.7134 88.9609 48.6274 89.2266 48.6274C89.4609 48.6274 89.6562 48.7212 89.8125 48.9087C89.9688 49.0806 90.0469 49.2837 90.0469 49.5181C90.0469 49.6118 90.0234 49.8931 89.9766 50.3618C89.9453 50.8306 89.8984 51.3931 89.8359 52.0493C89.7891 52.6899 89.7422 53.3774 89.6953 54.1118C89.6641 54.8306 89.6484 55.4946 89.6484 56.104C89.6484 56.9321 89.7266 57.604 89.8828 58.1196C90.0547 58.6196 90.2656 59.0103 90.5156 59.2915C90.7812 59.5728 91.0547 59.7603 91.3359 59.854C91.6328 59.9478 91.9141 59.9946 92.1797 59.9946C92.6172 59.9946 93.0703 59.8384 93.5391 59.5259C94.0078 59.2134 94.4844 58.7759 94.9688 58.2134C95.4688 57.6509 95.9688 56.979 96.4688 56.1978C96.9688 55.4009 97.4609 54.5181 97.9453 53.5493C98.0234 53.3931 98.1328 53.2759 98.2734 53.1978C98.4141 53.104 98.5703 53.0571 98.7422 53.0571C98.9922 53.0571 99.1953 53.1509 99.3516 53.3384C99.5234 53.5259 99.6094 53.729 99.6094 53.9478C99.6094 54.104 99.5781 54.2368 99.5156 54.3462C99.3281 54.7056 99.0938 55.1431 98.8125 55.6587C98.5312 56.1743 98.2109 56.7056 97.8516 57.2524C97.4922 57.7993 97.0938 58.3462 96.6562 58.8931C96.2344 59.4243 95.7812 59.9087 95.2969 60.3462C94.8125 60.7681 94.3047 61.1118 93.7734 61.3774C93.2422 61.6431 92.7031 61.7759 92.1562 61.7759C91.4531 61.7759 90.8359 61.6274 90.3047 61.3306C89.7734 61.0337 89.3203 60.6353 88.9453 60.1353C88.5859 59.6353 88.3125 59.0493 88.125 58.3774C87.9531 57.6899 87.8672 56.9556 87.8672 56.1743ZM90.3516 42.4399C90.3516 42.2212 90.2656 42.0337 90.0938 41.8774C89.9375 41.7056 89.75 41.6196 89.5312 41.6196C89.3125 41.6196 89.125 41.7056 88.9688 41.8774C88.8125 42.0337 88.7344 42.2212 88.7344 42.4399C88.7344 42.6587 88.8125 42.8462 88.9688 43.0024C89.125 43.1587 89.3125 43.2368 89.5312 43.2368C89.75 43.2368 89.9375 43.1587 90.0938 43.0024C90.2656 42.8462 90.3516 42.6587 90.3516 42.4399ZM100.734 58.2603C101.062 58.7134 101.484 59.0806 102 59.3618C102.516 59.6274 103.148 59.7603 103.898 59.7603C104.664 59.7603 105.359 59.5806 105.984 59.2212C106.609 58.8462 107.18 58.3618 107.695 57.7681C108.211 57.1743 108.672 56.5103 109.078 55.7759C109.484 55.0415 109.852 54.3071 110.18 53.5728C110.258 53.4009 110.367 53.2759 110.508 53.1978C110.648 53.104 110.805 53.0571 110.977 53.0571C111.242 53.0571 111.453 53.1509 111.609 53.3384C111.781 53.5259 111.867 53.729 111.867 53.9478C111.867 54.0259 111.859 54.0962 111.844 54.1587C111.828 54.2056 111.805 54.2603 111.773 54.3228C110.695 56.6978 109.516 58.4868 108.234 59.6899C106.969 60.8931 105.531 61.5103 103.922 61.5415C102.891 61.5415 102 61.3384 101.25 60.9321C100.5 60.5415 99.8828 60.0337 99.3984 59.4087C98.9141 58.7681 98.5547 58.0493 98.3203 57.2524C98.0859 56.4556 97.9688 55.6587 97.9688 54.8618C97.9688 54.0649 98.0625 53.3306 98.25 52.6587C98.4531 51.9868 98.7344 51.4009 99.0938 50.9009C99.4688 50.4009 99.9062 50.0103 100.406 49.729C100.922 49.4478 101.484 49.3071 102.094 49.3071C102.453 49.3071 102.805 49.3853 103.148 49.5415C103.508 49.6821 103.828 49.8931 104.109 50.1743C104.391 50.4399 104.617 50.7681 104.789 51.1587C104.961 51.5493 105.047 51.9946 105.047 52.4946C105.047 53.1353 104.938 53.7368 104.719 54.2993C104.5 54.8618 104.195 55.3853 103.805 55.8696C103.43 56.354 102.977 56.7993 102.445 57.2056C101.914 57.6118 101.344 57.9634 100.734 58.2603ZM100.031 56.7368C100.516 56.5337 100.953 56.2759 101.344 55.9634C101.75 55.6509 102.094 55.3071 102.375 54.9321C102.656 54.5571 102.875 54.1665 103.031 53.7603C103.188 53.3384 103.266 52.9165 103.266 52.4946C103.266 52.0259 103.148 51.6743 102.914 51.4399C102.68 51.1899 102.406 51.0649 102.094 51.0649C101.672 51.0649 101.312 51.1821 101.016 51.4165C100.719 51.6509 100.477 51.9556 100.289 52.3306C100.102 52.7056 99.9609 53.1274 99.8672 53.5962C99.7891 54.0493 99.75 54.5024 99.75 54.9556C99.75 55.2368 99.7734 55.5337 99.8203 55.8462C99.8828 56.1587 99.9531 56.4556 100.031 56.7368ZM123.539 54.3462C123.367 54.7056 123.148 55.1353 122.883 55.6353C122.633 56.1196 122.344 56.6274 122.016 57.1587C121.688 57.6899 121.32 58.2212 120.914 58.7524C120.508 59.2681 120.062 59.7368 119.578 60.1587C119.109 60.5649 118.602 60.8931 118.055 61.1431C117.523 61.4087 116.953 61.5415 116.344 61.5415C115.406 61.5415 114.602 61.2524 113.93 60.6743C113.258 60.0962 112.688 59.3384 112.219 58.4009C111.75 57.4634 111.367 56.4009 111.07 55.2134C110.789 54.0103 110.57 52.7915 110.414 51.5571C110.258 50.3071 110.148 49.0962 110.086 47.9243C110.039 46.7524 110.016 45.7134 110.016 44.8071C110.016 43.4946 110.055 42.1353 110.133 40.729C110.227 39.3228 110.367 37.9478 110.555 36.604C110.742 35.2603 110.977 33.9868 111.258 32.7837C111.555 31.5806 111.898 30.5259 112.289 29.6196C112.695 28.7134 113.156 27.9946 113.672 27.4634C114.188 26.9321 114.773 26.6665 115.43 26.6665C115.945 26.6665 116.406 26.7915 116.812 27.0415C117.234 27.2759 117.586 27.6665 117.867 28.2134C118.148 28.7603 118.367 29.4712 118.523 30.3462C118.68 31.2212 118.758 32.2915 118.758 33.5571C118.758 35.1196 118.594 36.7368 118.266 38.4087C117.938 40.0649 117.492 41.7368 116.93 43.4243C116.367 45.1118 115.703 46.7993 114.938 48.4868C114.172 50.1587 113.352 51.7915 112.477 53.3853C112.867 55.3696 113.391 56.9321 114.047 58.0728C114.703 59.1978 115.492 59.7603 116.414 59.7603C117.039 59.7603 117.641 59.5181 118.219 59.0337C118.797 58.5337 119.328 57.9478 119.812 57.2759C120.297 56.604 120.719 55.9243 121.078 55.2368C121.453 54.5337 121.742 53.9712 121.945 53.5493C122.023 53.3931 122.133 53.2759 122.273 53.1978C122.414 53.104 122.57 53.0571 122.742 53.0571C123.008 53.0571 123.219 53.1509 123.375 53.3384C123.547 53.5259 123.633 53.7368 123.633 53.9712C123.633 54.0649 123.602 54.1899 123.539 54.3462ZM111.797 44.9243C111.797 45.9243 111.82 46.8853 111.867 47.8071C111.914 48.729 111.977 49.6118 112.055 50.4556C112.711 49.1899 113.336 47.8462 113.93 46.4243C114.523 44.9868 115.047 43.5415 115.5 42.0884C115.953 40.6196 116.312 39.1665 116.578 37.729C116.859 36.2759 117 34.8931 117 33.5806C117 31.7368 116.852 30.4165 116.555 29.6196C116.258 28.8228 115.859 28.4243 115.359 28.4243C115.031 28.4243 114.711 28.6509 114.398 29.104C114.102 29.5571 113.82 30.1743 113.555 30.9556C113.289 31.7368 113.047 32.6587 112.828 33.7212C112.609 34.7837 112.422 35.9243 112.266 37.1431C112.125 38.3618 112.008 39.6353 111.914 40.9634C111.836 42.2915 111.797 43.6118 111.797 44.9243ZM170.859 52.1431C170.125 53.3306 169.133 54.5103 167.883 55.6821C166.633 56.8384 165.203 57.8853 163.594 58.8228C162 59.7446 160.258 60.4868 158.367 61.0493C156.477 61.6274 154.523 61.9165 152.508 61.9165C150.93 61.9165 149.352 61.7759 147.773 61.4946C146.211 61.2134 144.703 60.7837 143.25 60.2056C141.812 59.6274 140.469 58.9009 139.219 58.0259C137.984 57.1353 136.906 56.0884 135.984 54.8853C135.062 53.6821 134.336 52.3149 133.805 50.7837C133.289 49.2524 133.031 47.5493 133.031 45.6743C133.031 43.8462 133.297 42.1118 133.828 40.4712C134.375 38.8306 135.133 37.3149 136.102 35.9243C137.07 34.5181 138.219 33.2524 139.547 32.1274C140.875 31.0024 142.328 30.0493 143.906 29.2681C145.484 28.4712 147.148 27.8618 148.898 27.4399C150.648 27.0181 152.438 26.8071 154.266 26.8071C156.281 26.8071 158.172 27.0493 159.938 27.5337C161.719 28.0024 163.273 28.6743 164.602 29.5493C165.93 30.4087 166.977 31.4478 167.742 32.6665C168.523 33.8696 168.914 35.2134 168.914 36.6978C168.914 38.0728 168.594 39.3853 167.953 40.6353C167.312 41.8696 166.43 42.9556 165.305 43.8931C164.195 44.8306 162.891 45.5728 161.391 46.1196C159.906 46.6665 158.32 46.9399 156.633 46.9399C155.273 46.9399 154.07 46.7759 153.023 46.4478C151.977 46.104 151.102 45.6353 150.398 45.0415C149.695 44.4478 149.164 43.7524 148.805 42.9556C148.445 42.1587 148.266 41.2993 148.266 40.3774C148.266 39.6118 148.383 38.9165 148.617 38.2915C148.867 37.6509 149.133 37.104 149.414 36.6509C149.711 36.1978 149.984 35.8462 150.234 35.5962C150.5 35.3306 150.648 35.1821 150.68 35.1509C150.758 35.0728 150.844 35.0259 150.938 35.0103C151.047 34.979 151.148 34.9634 151.242 34.9634C151.492 34.9634 151.703 35.0415 151.875 35.1978C152.047 35.354 152.133 35.5571 152.133 35.8071C152.133 36.0884 152.031 36.3228 151.828 36.5103C151.797 36.5259 151.688 36.6353 151.5 36.8384C151.312 37.0259 151.109 37.2915 150.891 37.6353C150.672 37.9634 150.469 38.3618 150.281 38.8306C150.109 39.2993 150.023 39.8149 150.023 40.3774C150.023 41.2681 150.219 42.0181 150.609 42.6274C151.016 43.2368 151.539 43.7368 152.18 44.1274C152.82 44.5024 153.531 44.7759 154.312 44.9478C155.094 45.104 155.875 45.1821 156.656 45.1821C158.109 45.1821 159.469 44.9478 160.734 44.479C162.016 44.0103 163.133 43.3853 164.086 42.604C165.039 41.8228 165.789 40.9243 166.336 39.9087C166.883 38.8931 167.156 37.8306 167.156 36.7212C167.156 35.5024 166.812 34.3931 166.125 33.3931C165.438 32.3774 164.508 31.5181 163.336 30.8149C162.164 30.0962 160.789 29.5415 159.211 29.1509C157.648 28.7603 155.977 28.5649 154.195 28.5649C152.852 28.5649 151.438 28.729 149.953 29.0571C148.484 29.3696 147.031 29.8462 145.594 30.4868C144.156 31.1274 142.781 31.9243 141.469 32.8774C140.172 33.8306 139.031 34.9478 138.047 36.229C137.062 37.4946 136.273 38.9165 135.68 40.4946C135.102 42.0728 134.812 43.7993 134.812 45.6743C134.812 47.3774 135.047 48.9165 135.516 50.2915C136 51.6665 136.664 52.8931 137.508 53.9712C138.352 55.0337 139.336 55.9556 140.461 56.7368C141.602 57.5181 142.82 58.1665 144.117 58.6821C145.43 59.1821 146.797 59.5571 148.219 59.8071C149.641 60.0415 151.055 60.1587 152.461 60.1587C154.336 60.1587 156.141 59.9009 157.875 59.3853C159.609 58.854 161.211 58.1665 162.68 57.3228C164.164 56.4634 165.477 55.5024 166.617 54.4399C167.758 53.3774 168.664 52.3071 169.336 51.229C169.414 51.0884 169.523 50.9868 169.664 50.9243C169.805 50.8462 169.953 50.8071 170.109 50.8071C170.375 50.8071 170.586 50.9009 170.742 51.0884C170.898 51.2603 170.977 51.4556 170.977 51.6743C170.977 51.7524 170.969 51.8306 170.953 51.9087C170.938 51.9868 170.906 52.0649 170.859 52.1431ZM191.414 54.2993C191.352 54.4243 191.219 54.6899 191.016 55.0962C190.828 55.4868 190.578 55.9399 190.266 56.4556C189.969 56.9712 189.617 57.5103 189.211 58.0728C188.805 58.6353 188.352 59.1509 187.852 59.6196C187.352 60.0884 186.812 60.479 186.234 60.7915C185.656 61.0884 185.047 61.2368 184.406 61.2368C183.5 61.2368 182.734 60.9478 182.109 60.3696C181.5 59.7915 181.055 59.0649 180.773 58.1899C180.242 59.0806 179.609 59.7915 178.875 60.3228C178.141 60.8384 177.406 61.0962 176.672 61.0962C176.094 61.0962 175.57 60.9946 175.102 60.7915C174.633 60.5728 174.234 60.2759 173.906 59.9009C173.578 59.5103 173.32 59.0571 173.133 58.5415C172.961 58.0259 172.875 57.4634 172.875 56.854C172.875 55.6353 173.078 54.5649 173.484 53.6431C173.906 52.7056 174.438 51.9243 175.078 51.2993C175.719 50.6743 176.422 50.2056 177.188 49.8931C177.969 49.5806 178.719 49.4243 179.438 49.4243C179.922 49.4243 180.367 49.4946 180.773 49.6353C181.18 49.7603 181.523 49.9009 181.805 50.0571C182.102 50.2134 182.328 50.3618 182.484 50.5024C182.641 50.6274 182.727 50.6978 182.742 50.7134C182.914 50.9165 183 51.1274 183 51.3462C183 51.5806 182.914 51.7915 182.742 51.979C182.57 52.1509 182.367 52.2368 182.133 52.2368C181.883 52.2368 181.672 52.1509 181.5 51.979C181.469 51.9478 181.398 51.8931 181.289 51.8149C181.18 51.7212 181.031 51.6274 180.844 51.5337C180.656 51.4399 180.43 51.3618 180.164 51.2993C179.914 51.2212 179.625 51.1821 179.297 51.1821C178.812 51.1821 178.297 51.2915 177.75 51.5103C177.203 51.729 176.703 52.0728 176.25 52.5415C175.797 52.9946 175.414 53.5728 175.102 54.2759C174.805 54.9634 174.656 55.7837 174.656 56.7368C174.656 57.0337 174.688 57.3384 174.75 57.6509C174.812 57.9478 174.922 58.2212 175.078 58.4712C175.234 58.7212 175.445 58.9243 175.711 59.0806C175.977 59.2368 176.305 59.3149 176.695 59.3149C176.977 59.3149 177.297 59.2212 177.656 59.0337C178.031 58.8462 178.383 58.5571 178.711 58.1665C179.055 57.7759 179.359 57.2837 179.625 56.6899C179.906 56.0962 180.102 55.3931 180.211 54.5806C180.242 54.3618 180.344 54.1821 180.516 54.0415C180.688 53.8853 180.891 53.8071 181.125 53.8071C181.344 53.8071 181.531 53.8931 181.688 54.0649C181.859 54.2368 181.953 54.4321 181.969 54.6509C181.984 54.9478 182.016 55.3696 182.062 55.9165C182.109 56.4478 182.211 56.979 182.367 57.5103C182.539 58.0415 182.789 58.5024 183.117 58.8931C183.445 59.2837 183.898 59.479 184.477 59.479C184.852 59.479 185.219 59.3774 185.578 59.1743C185.953 58.9712 186.312 58.7056 186.656 58.3774C187.016 58.0337 187.352 57.6509 187.664 57.229C187.992 56.7915 188.289 56.354 188.555 55.9165C188.82 55.479 189.055 55.0571 189.258 54.6509C189.461 54.2446 189.633 53.8931 189.773 53.5962C189.852 53.4243 189.961 53.2915 190.102 53.1978C190.258 53.104 190.422 53.0571 190.594 53.0571C190.859 53.0571 191.07 53.1587 191.227 53.3618C191.398 53.5493 191.484 53.7524 191.484 53.9712C191.484 54.0806 191.461 54.1899 191.414 54.2993ZM192.258 51.2056C192.195 51.6274 192.117 52.0259 192.023 52.4009C191.93 52.7603 191.836 53.0806 191.742 53.3618C191.664 53.6274 191.594 53.8462 191.531 54.0181C191.469 54.1899 191.43 54.2837 191.414 54.2993C191.258 54.6587 190.984 54.8384 190.594 54.8384C190.375 54.8384 190.172 54.7603 189.984 54.604C189.797 54.4321 189.703 54.2212 189.703 53.9712C189.703 53.8774 189.719 53.8071 189.75 53.7603C189.781 53.7134 189.828 53.6196 189.891 53.479C189.953 53.3384 190.031 53.104 190.125 52.7759C190.219 52.4478 190.336 51.9399 190.477 51.2524C190.211 51.2524 189.938 51.2446 189.656 51.229C189.375 51.2134 189.117 51.1587 188.883 51.0649C188.633 50.9712 188.43 50.8228 188.273 50.6196C188.117 50.4165 188.039 50.1353 188.039 49.7759C188.039 49.5103 188.117 49.1509 188.273 48.6978C188.414 48.2446 188.609 47.7993 188.859 47.3618C189.109 46.9243 189.391 46.5493 189.703 46.2368C190.016 45.9087 190.328 45.7446 190.641 45.7446C191 45.7446 191.289 45.8774 191.508 46.1431C191.742 46.4087 191.922 46.7368 192.047 47.1274C192.172 47.5024 192.258 47.9009 192.305 48.3228C192.367 48.7446 192.398 49.1118 192.398 49.4243C192.664 49.4243 192.922 49.4243 193.172 49.4243C193.438 49.4087 193.688 49.4009 193.922 49.4009C194.812 49.4009 195.492 49.5962 195.961 49.9868C196.43 50.3774 196.664 51.0181 196.664 51.9087C196.664 52.2681 196.641 52.6431 196.594 53.0337C196.547 53.4243 196.492 53.8306 196.43 54.2524C196.367 54.6587 196.312 55.0649 196.266 55.4712C196.219 55.8774 196.195 56.2759 196.195 56.6665C196.195 57.229 196.273 57.6978 196.43 58.0728C196.586 58.4321 196.781 58.7212 197.016 58.9399C197.25 59.1587 197.5 59.3149 197.766 59.4087C198.031 59.4868 198.273 59.5259 198.492 59.5259C199.164 59.5259 199.797 59.3071 200.391 58.8696C200.984 58.4321 201.531 57.9087 202.031 57.2993C202.531 56.6743 202.977 56.0181 203.367 55.3306C203.773 54.6431 204.109 54.0415 204.375 53.5259C204.453 53.3853 204.562 53.2759 204.703 53.1978C204.844 53.1196 204.992 53.0806 205.148 53.0806C205.43 53.0806 205.648 53.1743 205.805 53.3618C205.961 53.5337 206.039 53.729 206.039 53.9478C206.039 54.104 206.008 54.2446 205.945 54.3696C205.586 55.0103 205.164 55.7368 204.68 56.5493C204.211 57.3462 203.672 58.0962 203.062 58.7993C202.453 59.5024 201.766 60.0962 201 60.5806C200.25 61.0649 199.422 61.3071 198.516 61.3071C197.953 61.3071 197.422 61.1978 196.922 60.979C196.422 60.7759 195.984 60.479 195.609 60.0884C195.25 59.6821 194.961 59.1899 194.742 58.6118C194.523 58.0181 194.414 57.354 194.414 56.6196C194.414 55.8384 194.492 55.0649 194.648 54.2993C194.805 53.5181 194.883 52.7759 194.883 52.0728C194.883 51.7759 194.812 51.5571 194.672 51.4165C194.547 51.2603 194.258 51.1821 193.805 51.1821C193.586 51.1821 193.344 51.1821 193.078 51.1821C192.828 51.1821 192.555 51.1899 192.258 51.2056ZM190.688 49.4712C190.688 49.3618 190.68 49.2212 190.664 49.0493C190.664 48.8618 190.648 48.6821 190.617 48.5103C190.602 48.3384 190.57 48.1899 190.523 48.0649C190.492 47.9399 190.453 47.8774 190.406 47.8774C190.359 47.8774 190.297 47.9399 190.219 48.0649C190.156 48.1743 190.086 48.3149 190.008 48.4868C189.93 48.6431 189.859 48.8149 189.797 49.0024C189.734 49.1899 189.688 49.3462 189.656 49.4712H190.688ZM213.469 54.0181C214.234 57.6274 215.344 59.4321 216.797 59.4321C217.359 59.4321 217.898 59.229 218.414 58.8228C218.93 58.4009 219.406 57.8931 219.844 57.2993C220.297 56.6899 220.695 56.0493 221.039 55.3774C221.383 54.7056 221.664 54.1196 221.883 53.6196C222.039 53.2446 222.312 53.0571 222.703 53.0571C222.953 53.0571 223.164 53.1509 223.336 53.3384C223.508 53.5259 223.594 53.729 223.594 53.9478C223.594 54.0728 223.57 54.1821 223.523 54.2759C223.414 54.5415 223.25 54.9009 223.031 55.354C222.828 55.7915 222.57 56.2681 222.258 56.7837C221.961 57.2837 221.625 57.7993 221.25 58.3306C220.875 58.8618 220.461 59.3384 220.008 59.7603C219.555 60.1821 219.07 60.5337 218.555 60.8149C218.055 61.0806 217.523 61.2134 216.961 61.2134C215.914 61.2134 215.016 60.854 214.266 60.1353C213.516 59.4009 212.867 58.1978 212.32 56.5259C211.57 58.1196 210.812 59.2759 210.047 59.9946C209.281 60.7134 208.453 61.0728 207.562 61.0728C207.094 61.0728 206.641 60.9946 206.203 60.8384C205.766 60.6978 205.383 60.4556 205.055 60.1118C204.727 59.7681 204.461 59.3306 204.258 58.7993C204.055 58.2524 203.953 57.5884 203.953 56.8071C203.953 55.729 204.141 54.7368 204.516 53.8306C204.891 52.9243 205.375 52.1509 205.969 51.5103C206.562 50.854 207.219 50.3462 207.938 49.9868C208.672 49.6274 209.398 49.4478 210.117 49.4478C210.352 49.4478 210.555 49.5337 210.727 49.7056C210.898 49.8618 210.984 50.0649 210.984 50.3149C210.984 50.5337 210.914 50.729 210.773 50.9009C210.633 51.0728 210.445 51.1743 210.211 51.2056C209.742 51.2681 209.242 51.4165 208.711 51.6509C208.18 51.8853 207.688 52.229 207.234 52.6821C206.797 53.1196 206.43 53.6821 206.133 54.3696C205.852 55.0571 205.711 55.8774 205.711 56.8306C205.711 57.6118 205.867 58.2212 206.18 58.6587C206.508 59.0962 206.977 59.3149 207.586 59.3149C207.836 59.3149 208.102 59.2524 208.383 59.1274C208.664 58.9868 208.961 58.7212 209.273 58.3306C209.602 57.9399 209.953 57.3853 210.328 56.6665C210.719 55.9478 211.148 55.0024 211.617 53.8306C211.352 52.4556 211.109 50.8696 210.891 49.0728C210.672 47.2759 210.562 45.2681 210.562 43.0493C210.562 42.0806 210.594 41.0728 210.656 40.0259C210.719 38.9634 210.82 37.9321 210.961 36.9321C211.102 35.9165 211.289 34.9556 211.523 34.0493C211.758 33.1431 212.039 32.3462 212.367 31.6587C212.711 30.9712 213.109 30.4321 213.562 30.0415C214.016 29.6353 214.531 29.4321 215.109 29.4321C215.625 29.4321 216.062 29.5728 216.422 29.854C216.781 30.1353 217.07 30.5259 217.289 31.0259C217.523 31.5259 217.695 32.1274 217.805 32.8306C217.914 33.5337 217.969 34.3071 217.969 35.1509C217.969 36.9634 217.812 38.7759 217.5 40.5884C217.188 42.4009 216.797 44.1353 216.328 45.7915C215.875 47.4478 215.391 48.979 214.875 50.3853C214.359 51.7915 213.891 53.0024 213.469 54.0181ZM216.211 35.1274C216.211 34.7368 216.195 34.3149 216.164 33.8618C216.148 33.4087 216.094 32.9868 216 32.5962C215.922 32.1899 215.812 31.854 215.672 31.5884C215.531 31.3228 215.344 31.1899 215.109 31.1899C214.719 31.1899 214.352 31.5337 214.008 32.2212C213.68 32.9087 213.391 33.8149 213.141 34.9399C212.891 36.0493 212.688 37.3149 212.531 38.7368C212.391 40.1431 212.32 41.5649 212.32 43.0024C212.32 44.3774 212.375 45.7524 212.484 47.1274C212.594 48.5024 212.719 49.729 212.859 50.8071C213.312 49.604 213.742 48.3696 214.148 47.104C214.555 45.8228 214.906 44.5181 215.203 43.1899C215.516 41.8618 215.758 40.5259 215.93 39.1821C216.117 37.8228 216.211 36.4712 216.211 35.1274ZM232.711 58.2603C232.32 58.2603 231.977 58.229 231.68 58.1665C231.445 58.6353 231.164 59.0728 230.836 59.479C230.508 59.8696 230.125 60.2134 229.688 60.5103C229.266 60.8071 228.789 61.0415 228.258 61.2134C227.727 61.3853 227.148 61.4712 226.523 61.4712C225.789 61.4712 225.117 61.3384 224.508 61.0728C223.898 60.8228 223.367 60.4712 222.914 60.0181C222.461 59.5493 222.109 58.9946 221.859 58.354C221.609 57.6978 221.484 56.979 221.484 56.1978C221.484 55.1978 221.664 54.3306 222.023 53.5962C222.383 52.8462 222.797 52.229 223.266 51.7446C223.734 51.2446 224.203 50.8774 224.672 50.6431C225.141 50.3931 225.492 50.2681 225.727 50.2681C225.992 50.2681 226.188 50.3384 226.312 50.479C226.453 50.6196 226.523 50.8071 226.523 51.0415C226.523 51.3071 226.438 51.5103 226.266 51.6509C226.109 51.7759 225.906 51.9009 225.656 52.0259C225.406 52.1509 225.141 52.3306 224.859 52.5649C224.578 52.7837 224.312 53.0649 224.062 53.4087C223.828 53.7524 223.633 54.1587 223.477 54.6274C223.32 55.0962 223.242 55.6196 223.242 56.1978C223.242 56.7134 223.32 57.1978 223.477 57.6509C223.633 58.0884 223.859 58.4712 224.156 58.7993C224.453 59.1118 224.805 59.3618 225.211 59.5493C225.617 59.7212 226.07 59.8071 226.57 59.8071C227.461 59.8071 228.195 59.604 228.773 59.1978C229.367 58.7759 229.82 58.2446 230.133 57.604C229.211 57.1196 228.453 56.4321 227.859 55.5415C227.266 54.6509 226.969 53.6509 226.969 52.5415C226.969 51.6509 227.18 50.9243 227.602 50.3618C228.039 49.7993 228.609 49.5181 229.312 49.5181C229.734 49.5181 230.133 49.6196 230.508 49.8228C230.883 50.0259 231.211 50.3462 231.492 50.7837C231.789 51.2212 232.023 51.7837 232.195 52.4712C232.367 53.1587 232.453 53.979 232.453 54.9321C232.453 55.4321 232.391 55.9556 232.266 56.5024C232.359 56.5181 232.453 56.5259 232.547 56.5259C232.641 56.5259 232.742 56.5259 232.852 56.5259C233.383 56.5259 233.859 56.4634 234.281 56.3384C234.703 56.2134 235.086 56.0259 235.43 55.7759C235.773 55.5259 236.078 55.2056 236.344 54.8149C236.625 54.4243 236.891 53.9712 237.141 53.4556C237.188 53.3618 237.289 53.2759 237.445 53.1978C237.602 53.104 237.758 53.0571 237.914 53.0571C238.117 53.0571 238.305 53.1431 238.477 53.3149C238.664 53.4712 238.758 53.6821 238.758 53.9478C238.758 54.0728 238.727 54.2134 238.664 54.3696C238.602 54.5103 238.539 54.6431 238.477 54.7681C238.211 55.2368 237.898 55.6899 237.539 56.1274C237.195 56.5493 236.781 56.9243 236.297 57.2524C235.828 57.5649 235.297 57.8149 234.703 58.0024C234.109 58.1899 233.445 58.2759 232.711 58.2603ZM228.703 52.354C228.703 52.6509 228.742 52.9634 228.82 53.2915C228.898 53.6196 229.016 53.9478 229.172 54.2759C229.344 54.5884 229.547 54.8931 229.781 55.1899C230.031 55.4712 230.32 55.7134 230.648 55.9165C230.695 55.5884 230.719 55.2681 230.719 54.9556C230.719 54.5337 230.688 54.104 230.625 53.6665C230.562 53.229 230.469 52.8306 230.344 52.4712C230.234 52.0962 230.094 51.7993 229.922 51.5806C229.75 51.3462 229.547 51.229 229.312 51.229C229.219 51.229 229.094 51.2993 228.938 51.4399C228.781 51.5806 228.703 51.8853 228.703 52.354ZM239.695 52.1665C239.602 52.4165 239.484 52.6978 239.344 53.0103C239.219 53.3228 239.07 53.6509 238.898 53.9946C238.758 54.2603 238.609 54.4712 238.453 54.6274C238.312 54.7681 238.125 54.8384 237.891 54.8384C237.625 54.8384 237.414 54.7603 237.258 54.604C237.102 54.4321 237.023 54.2368 237.023 54.0181C237.023 53.9399 237.031 53.8774 237.047 53.8306C237.062 53.7681 237.102 53.6743 237.164 53.5493C237.57 52.7681 237.867 52.0884 238.055 51.5103C238.258 50.9165 238.422 50.2993 238.547 49.6587C238.438 49.2993 238.359 48.9946 238.312 48.7446C238.266 48.4946 238.242 48.2368 238.242 47.9712C238.242 47.4556 238.352 47.0415 238.57 46.729C238.789 46.4009 239.094 46.2368 239.484 46.2368C239.844 46.2368 240.125 46.3931 240.328 46.7056C240.547 47.0181 240.656 47.4009 240.656 47.854C240.656 48.104 240.633 48.354 240.586 48.604C240.539 48.854 240.477 49.1665 240.398 49.5415C240.758 50.4321 241.117 51.2212 241.477 51.9087C241.836 52.5962 242.156 53.229 242.438 53.8071C242.719 54.3696 242.945 54.9009 243.117 55.4009C243.305 55.9009 243.398 56.4009 243.398 56.9009C243.398 57.5571 243.266 58.1821 243 58.7759C242.734 59.3696 242.297 59.8696 241.688 60.2759C241.766 60.2915 241.844 60.2993 241.922 60.2993C242 60.2993 242.078 60.2993 242.156 60.2993C243.047 60.2993 243.867 60.0962 244.617 59.6899C245.367 59.2837 246.039 58.7603 246.633 58.1196C247.242 57.4634 247.781 56.7446 248.25 55.9634C248.719 55.1665 249.125 54.3774 249.469 53.5962C249.625 53.2368 249.844 53.0571 250.125 53.0571C250.391 53.0571 250.594 53.1509 250.734 53.3384C250.891 53.5259 250.969 53.729 250.969 53.9478C250.969 54.0728 250.945 54.1899 250.898 54.2993C250.727 54.7212 250.5 55.2056 250.219 55.7524C249.953 56.2837 249.625 56.8384 249.234 57.4165C248.859 57.979 248.422 58.5337 247.922 59.0806C247.422 59.6274 246.859 60.1196 246.234 60.5571C245.625 60.979 244.953 61.3149 244.219 61.5649C243.484 61.8306 242.68 61.9634 241.805 61.9634C240.758 61.9634 239.781 61.7759 238.875 61.4009C237.984 61.0415 237.258 60.4399 236.695 59.5962C236.602 59.4556 236.555 59.3071 236.555 59.1509C236.555 58.9165 236.641 58.7134 236.812 58.5415C237 58.354 237.211 58.2603 237.445 58.2603C237.695 58.2603 237.906 58.3462 238.078 58.5181C238.094 58.5493 238.148 58.604 238.242 58.6821C238.336 58.7446 238.445 58.8228 238.57 58.9165C238.711 58.9946 238.867 59.0649 239.039 59.1274C239.227 59.1899 239.414 59.2212 239.602 59.2212C239.977 59.2212 240.289 59.1431 240.539 58.9868C240.805 58.8306 241.016 58.6431 241.172 58.4243C241.328 58.1899 241.438 57.9478 241.5 57.6978C241.578 57.4321 241.617 57.2056 241.617 57.0181C241.617 56.6274 241.555 56.2368 241.43 55.8462C241.305 55.4556 241.141 55.0649 240.938 54.6743C240.75 54.2837 240.539 53.8853 240.305 53.479C240.086 53.0571 239.883 52.6196 239.695 52.1665ZM260.086 58.2603C259.695 58.2603 259.352 58.229 259.055 58.1665C258.82 58.6353 258.539 59.0728 258.211 59.479C257.883 59.8696 257.5 60.2134 257.062 60.5103C256.641 60.8071 256.164 61.0415 255.633 61.2134C255.102 61.3853 254.523 61.4712 253.898 61.4712C253.164 61.4712 252.492 61.3384 251.883 61.0728C251.273 60.8228 250.742 60.4712 250.289 60.0181C249.836 59.5493 249.484 58.9946 249.234 58.354C248.984 57.6978 248.859 56.979 248.859 56.1978C248.859 55.1978 249.039 54.3306 249.398 53.5962C249.758 52.8462 250.172 52.229 250.641 51.7446C251.109 51.2446 251.578 50.8774 252.047 50.6431C252.516 50.3931 252.867 50.2681 253.102 50.2681C253.367 50.2681 253.562 50.3384 253.688 50.479C253.828 50.6196 253.898 50.8071 253.898 51.0415C253.898 51.3071 253.812 51.5103 253.641 51.6509C253.484 51.7759 253.281 51.9009 253.031 52.0259C252.781 52.1509 252.516 52.3306 252.234 52.5649C251.953 52.7837 251.688 53.0649 251.438 53.4087C251.203 53.7524 251.008 54.1587 250.852 54.6274C250.695 55.0962 250.617 55.6196 250.617 56.1978C250.617 56.7134 250.695 57.1978 250.852 57.6509C251.008 58.0884 251.234 58.4712 251.531 58.7993C251.828 59.1118 252.18 59.3618 252.586 59.5493C252.992 59.7212 253.445 59.8071 253.945 59.8071C254.836 59.8071 255.57 59.604 256.148 59.1978C256.742 58.7759 257.195 58.2446 257.508 57.604C256.586 57.1196 255.828 56.4321 255.234 55.5415C254.641 54.6509 254.344 53.6509 254.344 52.5415C254.344 51.6509 254.555 50.9243 254.977 50.3618C255.414 49.7993 255.984 49.5181 256.688 49.5181C257.109 49.5181 257.508 49.6196 257.883 49.8228C258.258 50.0259 258.586 50.3462 258.867 50.7837C259.164 51.2212 259.398 51.7837 259.57 52.4712C259.742 53.1587 259.828 53.979 259.828 54.9321C259.828 55.4321 259.766 55.9556 259.641 56.5024C259.734 56.5181 259.828 56.5259 259.922 56.5259C260.016 56.5259 260.117 56.5259 260.227 56.5259C260.758 56.5259 261.234 56.4634 261.656 56.3384C262.078 56.2134 262.461 56.0259 262.805 55.7759C263.148 55.5259 263.453 55.2056 263.719 54.8149C264 54.4243 264.266 53.9712 264.516 53.4556C264.562 53.3618 264.664 53.2759 264.82 53.1978C264.977 53.104 265.133 53.0571 265.289 53.0571C265.492 53.0571 265.68 53.1431 265.852 53.3149C266.039 53.4712 266.133 53.6821 266.133 53.9478C266.133 54.0728 266.102 54.2134 266.039 54.3696C265.977 54.5103 265.914 54.6431 265.852 54.7681C265.586 55.2368 265.273 55.6899 264.914 56.1274C264.57 56.5493 264.156 56.9243 263.672 57.2524C263.203 57.5649 262.672 57.8149 262.078 58.0024C261.484 58.1899 260.82 58.2759 260.086 58.2603ZM256.078 52.354C256.078 52.6509 256.117 52.9634 256.195 53.2915C256.273 53.6196 256.391 53.9478 256.547 54.2759C256.719 54.5884 256.922 54.8931 257.156 55.1899C257.406 55.4712 257.695 55.7134 258.023 55.9165C258.07 55.5884 258.094 55.2681 258.094 54.9556C258.094 54.5337 258.062 54.104 258 53.6665C257.938 53.229 257.844 52.8306 257.719 52.4712C257.609 52.0962 257.469 51.7993 257.297 51.5806C257.125 51.3462 256.922 51.229 256.688 51.229C256.594 51.229 256.469 51.2993 256.312 51.4399C256.156 51.5806 256.078 51.8853 256.078 52.354Z" fill="black"/>
</svg>
